# xmcd
#
# Track frame offsets:
#	150
#	16579
#	42404
#	60714
#	80465
#	100261
#	116093
#	131181
#	154379
#	172467
#	190059
#	206434
#	225871
#	243090
#	259489
#
# Disc length: 3768 seconds
#
# Revision: 1
# Processed by: cddbd v1.5.2PL0 Copyright (c) Steve Scherf et al.
# Submitted via: audiograbber 1.83.01
#
DISCID=cc0eb60f
DTITLE=Various Artist - SC8880
DYEAR=1900
DGENRE=country
TTITLE0=big and rich - save a horse
TTITLE1=toby keith - time for me to ride
TTITLE2=reba mcentire - somebody
TTITLE3=unknown - you are
TTITLE4=kenny chesney - i go back
TTITLE5=brad cotter  - i meant to
TTITLE6=jimmy buffet and friends - hey good lookin'
TTITLE7=tim mcgraw - live like you were dying
TTITLE8=sara evens - suds in the bucket
TTITLE9=toby keith - if i was jesus
TTITLE10=josh turner - what it ain't
TTITLE11=clay walker - i can't sleep
TTITLE12=terri clark - girls lie too
TTITLE13=gretchen wilson - home wrecker
TTITLE14=gretchen wilson - here for the party
EXTD=
EXTT0=
EXTT1=
EXTT2=
EXTT3=
EXTT4=
EXTT5=
EXTT6=
EXTT7=
EXTT8=
EXTT9=
EXTT10=
EXTT11=
EXTT12=
EXTT13=
EXTT14=
PLAYORDER=
